{"asset":{"version":"2.0","generator":"TerraVision Seed"},"scene":0,"scenes":[{"nodes":[0]}],"nodes":[{"name":"PLT-MON-001","mesh":0}],"meshes":[{"primitives":[{"attributes":{"POSITION":0},"indices":1,"material":0}]}],"materials":[{"name":"PlantGreen","pbrMetallicRoughness":{"baseColorFactor":[0.15,0.52,0.28,1],"metallicFactor":0,"roughnessFactor":0.82}}],"accessors":[{"bufferView":0,"componentType":5126,"count":8,"type":"VEC3","max":[0.2,0.35,0.2],"min":[-0.2,0,-0.2]},{"bufferView":1,"componentType":5123,"count":36,"type":"SCALAR"}],"bufferViews":[{"buffer":0,"byteOffset":0,"byteLength":96},{"buffer":0,"byteOffset":96,"byteLength":72}],"buffers":[{"byteLength":168,"uri":"data:application/octet-stream;base64,"}]}